<svg width="211" height="61" viewBox="0 0 211 61" fill="none" xmlns="http://www.w3.org/2000/svg">
<g clip-path="url(#clip0_281_628)">
<path d="M181.527 28.9626C184.178 28.9626 185.2 30.5845 185.342 31.9968C185.344 32.0181 185.342 32.0396 185.335 32.0599C185.328 32.0802 185.317 32.0989 185.303 32.1147C185.288 32.1305 185.271 32.1431 185.251 32.1516C185.232 32.1602 185.21 32.1646 185.189 32.1645H177.91C177.888 32.1645 177.866 32.1599 177.846 32.151C177.827 32.142 177.809 32.1289 177.795 32.1126C177.78 32.0963 177.769 32.0771 177.763 32.0563C177.757 32.0355 177.755 32.0136 177.757 31.992C177.954 30.6121 179.177 28.9626 181.527 28.9626ZM185.517 37.9419C185.469 37.9416 185.421 37.9529 185.378 37.9748C185.335 37.9967 185.298 38.0285 185.269 38.0677C184.613 38.9924 183.544 39.5626 181.949 39.5626C179.751 39.5626 177.842 38.118 177.636 36.0708C177.634 36.0496 177.637 36.0282 177.644 36.008C177.65 35.9878 177.661 35.9692 177.676 35.9534C177.69 35.9376 177.707 35.925 177.727 35.9163C177.746 35.9077 177.767 35.9032 177.789 35.9031H190.868C190.905 35.7881 190.982 34.9113 190.982 34.1099C190.982 28.0103 187.345 24.3879 181.45 24.3879C176.513 24.3879 171.957 28.2762 171.957 34.377C171.957 40.7449 176.628 44.4811 181.872 44.4811C186.612 44.4811 189.615 41.829 190.589 38.6235C190.595 38.6043 190.627 38.4845 190.663 38.3096C190.673 38.2652 190.672 38.2192 190.661 38.175C190.65 38.1309 190.63 38.0897 190.601 38.0545C190.572 38.0192 190.536 37.9908 190.495 37.9714C190.454 37.9519 190.409 37.9418 190.364 37.9419H185.517V37.9419ZM197.083 34.28L190.881 25.4396C190.849 25.3938 190.831 25.34 190.827 25.2842C190.823 25.2283 190.835 25.1726 190.861 25.123C190.887 25.0735 190.926 25.032 190.974 25.0031C191.022 24.9743 191.077 24.9591 191.133 24.9593H197.23C197.334 24.9593 197.43 25.0108 197.488 25.0971L200.674 29.9485C200.734 30.0407 200.87 30.0395 200.93 29.9461L204.044 25.1006C204.071 25.0573 204.109 25.0217 204.154 24.997C204.199 24.9723 204.25 24.9593 204.301 24.9593H210.049C210.298 24.9593 210.443 25.2384 210.3 25.4408L204.181 34.0488C204.145 34.1 204.125 34.1612 204.125 34.2241C204.125 34.2869 204.144 34.3483 204.18 34.3998C206.183 37.2507 208.472 40.5449 210.527 43.4282C210.67 43.6306 210.527 43.9085 210.277 43.9085H204.222C204.171 43.9087 204.121 43.8963 204.077 43.8725C204.032 43.8487 203.994 43.8141 203.966 43.772L200.662 38.7624C200.648 38.7414 200.629 38.7242 200.607 38.7123C200.585 38.7004 200.56 38.6942 200.534 38.6942C200.509 38.6942 200.484 38.7004 200.462 38.7123C200.44 38.7242 200.421 38.7414 200.407 38.7624C199.417 40.2334 198.124 42.2818 197.143 43.772C197.115 43.8142 197.077 43.8488 197.032 43.8727C196.987 43.8965 196.937 43.9088 196.886 43.9085H191.242C191.186 43.9088 191.131 43.8938 191.084 43.8652C191.036 43.8365 190.997 43.7953 190.971 43.746C190.945 43.6967 190.933 43.6412 190.936 43.5855C190.94 43.5299 190.959 43.4763 190.99 43.4306L197.084 34.6274C197.119 34.5764 197.138 34.5158 197.138 34.4537C197.138 34.3916 197.119 34.331 197.084 34.28H197.083ZM164.225 43.6043V16.6101C164.225 16.4412 164.363 16.3046 164.532 16.3046H169.738C169.907 16.3046 170.044 16.4412 170.044 16.6101V43.6043C170.044 43.772 169.907 43.9085 169.738 43.9085H164.532C164.492 43.9087 164.452 43.9009 164.415 43.8857C164.378 43.8705 164.344 43.8481 164.315 43.8199C164.287 43.7916 164.264 43.7581 164.249 43.7211C164.233 43.6841 164.225 43.6444 164.225 43.6043V43.6043ZM155.651 43.6043V16.6101C155.651 16.4412 155.788 16.3046 155.957 16.3046H161.163C161.332 16.3046 161.469 16.4412 161.469 16.6101V43.6043C161.469 43.772 161.332 43.9085 161.163 43.9085H155.957C155.917 43.9087 155.877 43.9009 155.84 43.8857C155.803 43.8705 155.769 43.8481 155.741 43.8199C155.712 43.7916 155.69 43.7581 155.674 43.7211C155.659 43.6841 155.651 43.6444 155.651 43.6043V43.6043ZM142.776 39.4476C145.112 39.4476 147.101 37.6185 147.101 34.4153C147.101 31.1368 145.149 29.4202 142.776 29.4202C140.288 29.4202 138.412 31.1368 138.412 34.4153C138.412 37.5418 140.365 39.4488 142.776 39.4488V39.4476ZM147.14 41.4684C146.298 43.2988 144.385 44.4428 142.01 44.4428C136.421 44.4428 132.556 40.2107 132.556 34.377C132.556 28.735 136.192 24.3867 141.819 24.3867C145.226 24.3867 146.718 26.2554 147.101 27.1322V25.2636C147.101 25.0959 147.238 24.9593 147.408 24.9593H152.422C152.59 24.9593 152.728 25.0959 152.728 25.2648V43.6043C152.728 43.772 152.591 43.9085 152.422 43.9085H147.412C147.371 43.9085 147.331 43.9005 147.294 43.8849C147.257 43.8693 147.223 43.8465 147.194 43.8178C147.166 43.789 147.144 43.7549 147.128 43.7175C147.113 43.68 147.106 43.6399 147.106 43.5995C147.116 42.9107 147.14 41.3187 147.14 41.4684V41.4684ZM120.14 25.1689L123.627 35.7318C123.675 35.8756 123.878 35.8708 123.919 35.7258L126.898 25.1821C126.916 25.1179 126.955 25.0613 127.008 25.0211C127.061 24.9809 127.126 24.9592 127.193 24.9593H132.248C132.455 24.9593 132.602 25.1581 132.541 25.3546L126.836 43.6941C126.816 43.7566 126.778 43.8113 126.725 43.8501C126.672 43.8889 126.609 43.9098 126.543 43.9097H121.209C121.145 43.9096 121.083 43.8894 121.031 43.852C120.979 43.8147 120.94 43.7619 120.919 43.7013L117.002 32.1034C116.954 31.9645 116.757 31.9657 116.711 32.1034L112.866 43.6989C112.846 43.7599 112.807 43.8129 112.755 43.8506C112.703 43.8882 112.64 43.9085 112.576 43.9085H107.127C107.062 43.9086 106.999 43.8879 106.946 43.8496C106.894 43.8113 106.855 43.7572 106.835 43.6953L101.055 25.3558C101.041 25.31 101.037 25.2615 101.045 25.2142C101.053 25.1669 101.072 25.1221 101.101 25.0835C101.129 25.0449 101.166 25.0135 101.209 24.992C101.252 24.9704 101.299 24.9592 101.347 24.9593H106.747C106.884 24.9593 107.005 25.0503 107.042 25.1821L110.021 35.6923C110.062 35.836 110.265 35.8408 110.313 35.6983L113.838 25.1689C113.858 25.1079 113.897 25.0547 113.949 25.0171C114.001 24.9795 114.064 24.9593 114.129 24.9593H119.848C119.98 24.9593 120.099 25.0432 120.14 25.1689V25.1689ZM99.4762 30.3042C99.4762 30.3488 99.4664 30.3928 99.4476 30.4332C99.4287 30.4736 99.4013 30.5093 99.3672 30.538C99.333 30.5666 99.293 30.5875 99.25 30.599C99.207 30.6106 99.1619 30.6126 99.118 30.6049C98.6293 30.5223 98.1343 30.483 97.6387 30.4875C95.3028 30.4875 93.1981 31.8603 93.1981 35.6348V43.6043C93.1981 43.772 93.0616 43.9085 92.8927 43.9085H87.6867C87.6466 43.9087 87.6069 43.9009 87.5697 43.8857C87.5326 43.8705 87.4989 43.8481 87.4704 43.8199C87.4419 43.7916 87.4193 43.7581 87.4038 43.7211C87.3883 43.6841 87.3802 43.6444 87.3801 43.6043V25.2648C87.3801 25.0971 87.5166 24.9593 87.6867 24.9593H92.701C92.8699 24.9593 93.0065 25.0959 93.0065 25.2648V27.5144C94.0019 25.3786 96.4144 24.7688 97.9453 24.7688C98.4101 24.7688 98.8749 24.8191 99.2378 24.8982C99.378 24.9294 99.4762 25.0539 99.4762 25.1965V30.3042ZM78.6907 43.6043V25.2648C78.6907 25.0971 78.8284 24.9593 78.9973 24.9593H84.2033C84.3722 24.9593 84.5099 25.0959 84.5099 25.2648V43.6043C84.5099 43.772 84.3722 43.9085 84.2033 43.9085H78.9973C78.9572 43.9087 78.9175 43.9009 78.8803 43.8857C78.8432 43.8705 78.8095 43.8481 78.781 43.8199C78.7525 43.7916 78.7299 43.7581 78.7144 43.7211C78.6989 43.6841 78.6908 43.6444 78.6907 43.6043ZM81.562 15.7704C83.4762 15.7704 85.0071 17.2953 85.0071 19.164C85.0071 21.0327 83.4762 22.5576 81.562 22.5576C79.7244 22.5576 78.1935 21.0327 78.1935 19.164C78.1935 17.2953 79.7244 15.7704 81.562 15.7704V15.7704ZM60.1511 32.9276H66.3034C66.4088 32.9276 66.4831 32.8246 66.4472 32.7251L63.4094 23.9974C63.3991 23.9672 63.3796 23.941 63.3537 23.9223C63.3278 23.9037 63.2967 23.8936 63.2648 23.8935C63.2329 23.8934 63.2018 23.9032 63.1757 23.9216C63.1497 23.94 63.13 23.9661 63.1195 23.9962L60.0086 32.7251C59.9727 32.8234 60.0469 32.9288 60.1523 32.9288L60.1511 32.9276ZM68.2164 38.4186H58.1603C58.0972 38.4187 58.0357 38.4384 57.9842 38.4748C57.9327 38.5113 57.8938 38.5628 57.8728 38.6223L56.064 43.7061C56.0429 43.7657 56.0038 43.8174 55.9521 43.8539C55.9003 43.8903 55.8386 43.9099 55.7753 43.9097H50.0806C50.031 43.91 49.9822 43.8982 49.9382 43.8754C49.8942 43.8526 49.8564 43.8194 49.8281 43.7787C49.7998 43.738 49.7819 43.6911 49.7758 43.6419C49.7697 43.5927 49.7756 43.5428 49.7931 43.4964L59.7834 17.0737C59.8053 17.0155 59.8445 16.9654 59.8956 16.9301C59.9468 16.8948 60.0075 16.8759 60.0697 16.876H66.6508C66.7778 16.876 66.8928 16.9551 66.9371 17.0749L76.8148 43.4976C76.8318 43.5439 76.8374 43.5935 76.831 43.6424C76.8247 43.6912 76.8066 43.7378 76.7784 43.7782C76.7501 43.8185 76.7126 43.8515 76.6688 43.8742C76.6251 43.8969 76.5766 43.9086 76.5273 43.9085H70.6014C70.5382 43.9085 70.4765 43.8889 70.4248 43.8524C70.3731 43.816 70.334 43.7644 70.3127 43.7049L68.5039 38.6223C68.4827 38.5629 68.4438 38.5115 68.3923 38.4751C68.3409 38.4386 68.2795 38.4189 68.2164 38.4186V38.4186Z" fill="#687D80"/>
<path fill-rule="evenodd" clip-rule="evenodd" d="M42.4187 27.0174C43.1639 27.7427 43.6807 28.67 43.9056 29.6852C44.1306 30.7003 44.0539 31.7591 43.6849 32.7313L40.8735 40.3689C40.1356 42.3742 38.4538 43.9254 36.3755 44.3303C35.3359 44.5384 34.2593 44.4599 33.2608 44.1034C32.2624 43.7468 31.3797 43.1255 30.7071 42.3059L13.8482 22.1073C13.8063 22.0576 13.752 22.0198 13.6909 21.9976C13.6298 21.9754 13.5639 21.9697 13.4999 21.981C13.4359 21.9923 13.3759 22.0202 13.326 22.0619C13.2762 22.1036 13.2381 22.1577 13.2157 22.2187L7.73064 37.0544C7.61684 37.3611 7.91871 37.6582 8.21818 37.536L14.949 34.7868C15.3285 34.633 15.7357 34.5592 16.145 34.5702C16.5543 34.5811 16.9569 34.6765 17.3277 34.8504C17.6984 35.0243 18.0291 35.2729 18.2992 35.5806C18.5693 35.8884 18.7729 36.2486 18.8972 36.6388C19.3944 38.1637 18.5582 39.8107 17.0861 40.4121L8.29364 44.0021C6.66573 44.6669 4.79584 44.5495 3.32964 43.5709C2.33047 42.9031 1.58554 41.9181 1.21518 40.7748C0.844813 39.6316 0.87063 38.3968 1.28846 37.27L7.76897 19.7475C8.53681 17.6704 10.2857 16.2042 12.4479 15.8257C13.5008 15.637 14.585 15.7323 15.5889 16.1018C16.5927 16.4713 17.48 17.1016 18.1594 17.9279L27.8358 29.5234L36.736 25.8878C38.7137 25.0804 40.8914 25.5129 42.4187 27.0174ZM37.2858 32.8415C37.3984 32.5348 37.0966 32.2378 36.7971 32.3611L31.8798 34.3688L34.829 37.9037C34.8708 37.954 34.9252 37.9924 34.9866 38.0149C35.048 38.0375 35.1143 38.0434 35.1787 38.0321C35.2432 38.0208 35.3035 37.9927 35.3535 37.9505C35.4036 37.9084 35.4417 37.8539 35.4639 37.7923L37.2846 32.8415H37.2858Z" fill="#687D80"/>
</g>
<defs>
<clipPath id="clip0_281_628">
<rect width="210" height="60" fill="white" transform="translate(0.955078 0.731323)"/>
</clipPath>
</defs>
</svg>
