<svg width="168" height="61" viewBox="0 0 168 61" fill="none" xmlns="http://www.w3.org/2000/svg">
<g clip-path="url(#clip0_281_603)">
<path d="M19.249 8.23126H0.955322V51.9813L19.249 8.23126Z" fill="#687D80"/>
<path d="M32.1201 8.23126H50.39V51.9813L32.1201 8.23126Z" fill="#687D80"/>
<path d="M25.6848 24.3561L37.3284 51.9814H29.6891L26.2092 43.1862H17.688L25.6848 24.3561Z" fill="#687D80"/>
<path d="M80.2348 36.0533L82.3919 42.2386C82.4634 42.3936 82.5706 42.4651 82.7613 42.4651H86.9087C87.1352 42.4651 87.1709 42.3578 87.1352 42.1314L78.5663 18.3317C78.5305 18.141 78.4948 18.1052 78.3041 18.1052H73.1556C73.0126 18.1052 72.9292 18.2125 72.9292 18.3674C72.8577 19.6188 72.7505 20.0001 72.5955 20.3696L64.9562 42.0956C64.9205 42.3578 65.0039 42.4651 65.2184 42.4651H68.9249C69.1513 42.4651 69.2586 42.3936 69.342 42.1671L71.3799 36.0533H80.2348ZM72.5598 32.0132C73.68 28.6286 75.1578 24.2905 75.7537 21.8116H75.7895C76.5284 24.4097 78.2684 29.5582 79.0549 32.0132H72.5598Z" fill="#687D80"/>
<path d="M98.1508 42.8349C100.379 42.8349 102.751 42.4297 105.158 41.3929C105.349 41.3214 105.385 41.2379 105.385 41.0592C105.313 40.3918 105.23 39.4264 105.23 38.6875V16.2822C105.23 16.1392 105.23 16.0677 105.051 16.0677H101.011C100.856 16.0677 100.785 16.1392 100.785 16.3299V23.9215C100.153 23.85 99.712 23.8142 99.1877 23.8142C92.6687 23.8142 88.6643 28.1165 88.6643 33.4914C88.6643 39.7244 92.7759 42.8349 98.1508 42.8349V42.8349ZM100.785 38.6875C100.117 38.9021 99.3784 38.9855 98.6275 38.9855C95.6719 38.9855 93.2526 37.317 93.2526 33.265C93.2526 29.6777 95.7434 27.5564 99.0447 27.5564C99.712 27.5564 100.296 27.6279 100.785 27.8186V38.6875Z" fill="#687D80"/>
<path d="M118.274 23.8138C112.708 23.8138 109.264 28.0803 109.264 33.348C109.264 38.0555 112.005 42.8345 118.19 42.8345C123.422 42.8345 127.093 38.9851 127.093 33.2288C127.093 28.1518 123.982 23.8138 118.274 23.8138ZM118.047 27.5559C121.194 27.5559 122.528 30.2613 122.528 33.348C122.528 37.1616 120.562 39.0566 118.274 39.0566C115.449 39.0566 113.781 36.6849 113.781 33.2645C113.781 29.7488 115.556 27.5559 118.047 27.5559V27.5559Z" fill="#687D80"/>
<path d="M131.27 16.0677C131.115 16.0677 131.008 16.1392 131.008 16.3299V41.6908C131.008 41.7981 131.115 41.9888 131.27 42.0245C133.045 42.5727 134.905 42.8349 136.823 42.8349C142.317 42.8349 147.657 39.4264 147.657 32.5618C147.657 27.5921 144.248 23.8142 138.909 23.8142C137.681 23.8142 136.537 24.0049 135.536 24.3386L135.489 16.3656C135.489 16.1034 135.417 16.0677 135.155 16.0677H131.27ZM143.092 33.0147C143.092 37.1263 140.28 39.057 137.241 39.057C136.609 39.057 136.049 39.0212 135.536 38.8663V28.045C136.12 27.8186 136.823 27.6279 138.122 27.6279C141.054 27.6279 143.092 29.4871 143.092 33.0147Z" fill="#687D80"/>
<path d="M162.734 34.3491C164.546 34.3491 166.036 34.3133 166.548 34.1941C166.739 34.1584 166.81 34.0869 166.846 33.9319C166.953 33.5267 167.001 32.6806 167.001 31.6437C167.001 28.1161 164.88 23.8138 159.397 23.8138C153.796 23.8138 150.686 28.3783 150.686 33.5267C150.686 38.0912 153.093 42.8345 159.838 42.8345C162.365 42.8345 163.998 42.4293 165.404 41.7619C165.547 41.6904 165.618 41.5712 165.618 41.3567V38.27C165.618 38.0912 165.511 38.0555 165.404 38.127C163.998 38.7229 162.472 39.0208 160.804 39.0208C157.026 39.0208 155.31 36.9352 155.202 34.3491H162.734ZM155.202 31.1551C155.5 29.3436 156.644 27.3772 159.207 27.3772C162.031 27.3772 162.77 29.7488 162.77 30.8214C162.77 30.8572 162.77 31.0121 162.77 31.1194C162.615 31.1551 162.138 31.1551 160.732 31.1551H155.202Z" fill="#687D80"/>
</g>
<defs>
<clipPath id="clip0_281_603">
<rect width="166.25" height="60" fill="white" transform="translate(0.955322 0.731323)"/>
</clipPath>
</defs>
</svg>
