<svg width="77" height="84" viewBox="0 0 77 84" fill="none" xmlns="http://www.w3.org/2000/svg">
<path d="M23.2357 39.0568C24.6746 33.6873 30.1939 28.168 35.5634 26.729L69.0391 17.7579C74.4086 16.3189 77.5949 19.5052 76.1559 24.8747L67.1848 58.3504C65.7458 63.7198 60.2265 69.2391 54.857 70.6781L21.3813 79.6492C16.0119 81.0882 12.8256 77.9019 14.2645 72.5324L23.2357 39.0568Z" fill="#778FFF"/>
<path d="M9.81546 25.6362C11.2544 20.2668 16.7737 14.7474 22.1432 13.3085L55.6189 4.33734C60.9884 2.89838 64.1747 6.08468 62.7358 11.4541L53.7646 44.9298C52.3256 50.2993 46.8063 55.8186 41.4369 57.2576L7.96113 66.2287C2.59166 67.6677 -0.59465 64.4814 0.844312 59.1119L9.81546 25.6362Z" fill="#2C51FF"/>
</svg>
