<svg width="49" height="53" viewBox="0 0 49 53" fill="none" xmlns="http://www.w3.org/2000/svg">
<path d="M14.6606 24.643C15.5685 21.2551 19.051 17.7727 22.4388 16.8647L43.5604 11.2044C46.9483 10.2965 48.9587 12.3069 48.0508 15.6947L42.3904 36.8163C41.4825 40.2042 38.0001 43.6867 34.6122 44.5946L13.4906 50.2549C10.1027 51.1629 8.09232 49.1524 9.00023 45.7646L14.6606 24.643Z" fill="#778FFF"/>
<path d="M6.19311 16.1756C7.10102 12.7877 10.5835 9.30525 13.9713 8.39733L35.093 2.73696C38.4808 1.82905 40.4913 3.83946 39.5833 7.22734L33.923 28.3489C33.015 31.7368 29.5326 35.2192 26.1447 36.1272L5.02311 41.7875C1.63523 42.6954 -0.375185 40.685 0.532733 37.2972L6.19311 16.1756Z" fill="#2C51FF"/>
</svg>
