<svg width="77" height="53" viewBox="0 0 77 53" fill="none" xmlns="http://www.w3.org/2000/svg">
<path d="M12.8295 44.3375V45H23.5394V31.9716C23.5394 30.7571 25.1955 30.3154 25.7476 31.4195L26.9621 33.959C28.6182 37.3817 29.5015 40.8044 29.5015 44.3375V45H40.2113V32.3028C40.2113 31.0883 41.8675 30.6466 42.4195 31.7507L43.6341 34.4006C45.1798 37.6025 45.9527 41.0252 45.9527 44.3375V45H56.6625V32.3028L54.8959 30.8675C47.7192 24.6845 43.9653 17.5078 43.9653 9.9999V9.44785H33.2555V22.1451C33.2555 23.3596 31.5993 23.8012 31.0473 22.6971L29.8327 20.0472C28.287 16.8453 27.5141 13.4226 27.5141 10.1103V9.55824H16.8043L16.8043 22.4763C16.8043 23.6908 15.1482 24.1324 14.5961 23.0283L13.3816 20.4889C11.7254 17.0662 10.8422 13.6434 10.8422 10.1103V9.55824H0.132324L0.132324 22.2554L1.8989 23.6908C9.07558 29.653 12.8295 36.94 12.8295 44.3375Z" fill="#00777F"/>
<circle cx="63.6182" cy="13.8644" r="13.2493" fill="#FF8329"/>
</svg>
