<svg width="24" height="24" viewBox="0 0 24 24" fill="none" xmlns="http://www.w3.org/2000/svg">
<path d="M15.4992 12.2808C15.4973 12.9512 15.2967 13.606 14.9228 14.1625C14.5489 14.719 14.0185 15.1521 13.3985 15.4073C12.7786 15.6624 12.0969 15.728 11.4396 15.5959C10.7824 15.4638 10.179 15.1398 9.70582 14.6649C9.23261 14.19 8.91077 13.5855 8.78097 12.9278C8.65117 12.2701 8.71922 11.5887 8.97654 10.9696C9.23386 10.3505 9.6689 9.82164 10.2267 9.44972C10.7845 9.0778 11.44 8.87956 12.1104 8.88003C12.5562 8.88066 12.9976 8.96914 13.4093 9.14042C13.8209 9.31169 14.1948 9.56241 14.5095 9.87823C14.8242 10.1941 15.0736 10.5688 15.2434 10.9811C15.4132 11.3933 15.5001 11.835 15.4992 12.2808ZM16.5048 8.66163C16.5053 8.8218 16.4582 8.9785 16.3695 9.11187C16.2808 9.24525 16.1545 9.34929 16.0066 9.4108C15.8587 9.47231 15.6959 9.48853 15.5388 9.4574C15.3817 9.42627 15.2373 9.34919 15.1241 9.23593C15.0108 9.12268 14.9337 8.97834 14.9026 8.82123C14.8715 8.66411 14.8877 8.50129 14.9492 8.3534C15.0107 8.20552 15.1148 8.07922 15.2481 7.99053C15.3815 7.90185 15.5382 7.85475 15.6984 7.85523C15.9123 7.85523 16.1174 7.94019 16.2686 8.09142C16.4198 8.24265 16.5048 8.44776 16.5048 8.66163Z" fill="white"/>
<path d="M12.0193 1.13281C9.86194 1.13281 7.75298 1.77256 5.95917 2.97114C4.16536 4.16973 2.76726 5.87333 1.94166 7.8665C1.11605 9.85968 0.90004 12.0529 1.32093 14.1689C1.74181 16.2848 2.7807 18.2284 4.30621 19.7539C5.83172 21.2794 7.77534 22.3183 9.89129 22.7392C12.0072 23.1601 14.2005 22.9441 16.1936 22.1185C18.1868 21.2929 19.8904 19.8948 21.089 18.101C22.2876 16.3072 22.9273 14.1982 22.9273 12.0408C22.9242 9.14881 21.7739 6.37616 19.7289 4.3312C17.684 2.28624 14.9113 1.13599 12.0193 1.13281ZM17.6545 14.9208C17.6545 15.6738 17.3554 16.396 16.8229 16.9284C16.2905 17.4609 15.5683 17.76 14.8153 17.76H9.36013C8.98697 17.7603 8.6174 17.6871 8.27252 17.5446C7.92764 17.4021 7.6142 17.1931 7.35011 16.9294C7.08602 16.6658 6.87645 16.3527 6.73335 16.0081C6.59026 15.6634 6.51645 15.294 6.51613 14.9208V9.46081C6.51645 9.08765 6.59026 8.7182 6.73335 8.37356C6.87645 8.02892 7.08602 7.71584 7.35011 7.4522C7.6142 7.18856 7.92764 6.97951 8.27252 6.837C8.6174 6.69449 8.98697 6.6213 9.36013 6.62161H14.8153C15.5683 6.62161 16.2905 6.92074 16.8229 7.45319C17.3554 7.98565 17.6545 8.70781 17.6545 9.46081V14.9208Z" fill="white"/>
<path d="M15.4992 12.2808C15.4973 12.9512 15.2967 13.606 14.9228 14.1625C14.5489 14.719 14.0185 15.1521 13.3985 15.4073C12.7786 15.6624 12.0969 15.728 11.4396 15.5959C10.7824 15.4638 10.179 15.1398 9.70582 14.6649C9.23261 14.19 8.91077 13.5855 8.78097 12.9278C8.65117 12.2701 8.71922 11.5887 8.97654 10.9696C9.23386 10.3505 9.6689 9.82164 10.2267 9.44972C10.7845 9.0778 11.44 8.87956 12.1104 8.88003C12.5562 8.88066 12.9976 8.96914 13.4093 9.14042C13.8209 9.31169 14.1948 9.56241 14.5095 9.87823C14.8242 10.1941 15.0736 10.5688 15.2434 10.9811C15.4132 11.3933 15.5001 11.835 15.4992 12.2808ZM16.5048 8.66163C16.5053 8.8218 16.4582 8.9785 16.3695 9.11187C16.2808 9.24525 16.1545 9.34929 16.0066 9.4108C15.8587 9.47231 15.6959 9.48853 15.5388 9.4574C15.3817 9.42627 15.2373 9.34919 15.1241 9.23593C15.0108 9.12268 14.9337 8.97834 14.9026 8.82123C14.8715 8.66411 14.8877 8.50129 14.9492 8.3534C15.0107 8.20552 15.1148 8.07922 15.2481 7.99053C15.3815 7.90185 15.5382 7.85475 15.6984 7.85523C15.9123 7.85523 16.1174 7.94019 16.2686 8.09142C16.4198 8.24265 16.5048 8.44776 16.5048 8.66163Z" fill="white"/>
<path d="M15.4992 12.2808C15.4973 12.9512 15.2967 13.606 14.9228 14.1625C14.5489 14.719 14.0185 15.1521 13.3985 15.4073C12.7786 15.6624 12.0969 15.728 11.4396 15.5959C10.7824 15.4638 10.179 15.1398 9.70582 14.6649C9.23261 14.19 8.91077 13.5855 8.78097 12.9278C8.65117 12.2701 8.71922 11.5887 8.97654 10.9696C9.23386 10.3505 9.6689 9.82164 10.2267 9.44972C10.7845 9.0778 11.44 8.87956 12.1104 8.88003C12.5562 8.88066 12.9976 8.96914 13.4093 9.14042C13.8209 9.31169 14.1948 9.56241 14.5095 9.87823C14.8242 10.1941 15.0736 10.5688 15.2434 10.9811C15.4132 11.3933 15.5001 11.835 15.4992 12.2808ZM16.5048 8.66163C16.5053 8.8218 16.4582 8.9785 16.3695 9.11187C16.2808 9.24525 16.1545 9.34929 16.0066 9.4108C15.8587 9.47231 15.6959 9.48853 15.5388 9.4574C15.3817 9.42627 15.2373 9.34919 15.1241 9.23593C15.0108 9.12268 14.9337 8.97834 14.9026 8.82123C14.8715 8.66411 14.8877 8.50129 14.9492 8.3534C15.0107 8.20552 15.1148 8.07922 15.2481 7.99053C15.3815 7.90185 15.5382 7.85475 15.6984 7.85523C15.9123 7.85523 16.1174 7.94019 16.2686 8.09142C16.4198 8.24265 16.5048 8.44776 16.5048 8.66163Z" fill="white"/>
</svg>
