<svg width="24" height="24" viewBox="0 0 24 24" fill="none" xmlns="http://www.w3.org/2000/svg">
<path d="M13.2838 10.6013H13.3006V10.5749L13.2838 10.6013ZM13.2838 10.6013H13.3006V10.5749L13.2838 10.6013ZM13.2838 10.6013H13.3006V10.5749L13.2838 10.6013ZM13.2838 10.6013H13.3006V10.5749L13.2838 10.6013ZM13.2838 10.6013H13.3006V10.5749L13.2838 10.6013ZM13.2838 10.6013H13.3006V10.5749L13.2838 10.6013ZM13.2838 10.6013H13.3006V10.5749L13.2838 10.6013ZM13.2838 10.6013H13.3006V10.5749L13.2838 10.6013ZM13.2838 10.6013H13.3006V10.5749L13.2838 10.6013ZM13.2838 10.6013H13.3006V10.5749L13.2838 10.6013ZM13.2838 10.6013H13.3006V10.5749L13.2838 10.6013ZM13.2838 10.6013H13.3006V10.5749L13.2838 10.6013ZM13.2838 10.6013H13.3006V10.5749L13.2838 10.6013ZM13.2838 10.6013H13.3006V10.5749L13.2838 10.6013ZM13.2838 10.6013H13.3006V10.5749L13.2838 10.6013ZM13.2838 10.6013H13.3006V10.5749L13.2838 10.6013ZM12.1918 0.905273C10.0239 0.905273 7.90476 1.54811 6.10227 2.7525C4.29977 3.95689 2.8949 5.66873 2.0653 7.67156C1.23571 9.67438 1.01865 11.8782 1.44157 14.0044C1.8645 16.1306 2.90841 18.0836 4.44131 19.6165C5.9742 21.1494 7.92723 22.1933 10.0534 22.6163C12.1796 23.0392 14.3835 22.8221 16.3863 21.9925C18.3891 21.1629 20.1009 19.7581 21.3053 17.9556C22.5097 16.1531 23.1526 14.0339 23.1526 11.8661C23.1494 8.96006 21.9936 6.17399 19.9387 4.11913C17.8838 2.06426 15.0978 0.90845 12.1918 0.905273ZM9.45096 16.8005C9.45033 16.8491 9.43058 16.8955 9.39599 16.9296C9.36141 16.9637 9.31476 16.9829 9.26616 16.9829H7.15416C7.10579 16.9829 7.05939 16.9637 7.02519 16.9294C6.99098 16.8952 6.97176 16.8488 6.97176 16.8005V9.70367C6.97144 9.67952 6.97593 9.65554 6.98495 9.63313C6.99398 9.61073 7.00736 9.59034 7.02433 9.57314C7.0413 9.55595 7.06151 9.5423 7.0838 9.53298C7.10609 9.52367 7.13001 9.51887 7.15416 9.51887H9.26616C9.29043 9.51887 9.31446 9.52365 9.33688 9.53294C9.3593 9.54223 9.37968 9.55584 9.39684 9.573C9.414 9.59016 9.42761 9.61053 9.4369 9.63295C9.44618 9.65537 9.45096 9.6794 9.45096 9.70367V16.8005ZM8.13576 8.57087C7.87327 8.57087 7.61667 8.49303 7.39841 8.3472C7.18015 8.20136 7.01004 7.99408 6.90959 7.75157C6.80914 7.50906 6.78285 7.2422 6.83406 6.98475C6.88527 6.7273 7.01168 6.49081 7.19729 6.3052C7.3829 6.11959 7.61939 5.99319 7.87684 5.94198C8.13429 5.89076 8.40114 5.91705 8.64366 6.0175C8.88617 6.11795 9.09345 6.28806 9.23929 6.50632C9.38512 6.72458 9.46296 6.98118 9.46296 7.24367C9.46328 7.41805 9.42917 7.59078 9.36258 7.75194C9.29599 7.91311 9.19824 8.05955 9.07494 8.18285C8.95163 8.30616 8.8052 8.4039 8.64403 8.47049C8.48287 8.53708 8.31014 8.57119 8.13576 8.57087ZM18.3886 16.8005C18.3879 16.8491 18.3682 16.8955 18.3336 16.9296C18.299 16.9637 18.2524 16.9829 18.2038 16.9829H16.0918C16.0678 16.9829 16.0441 16.9782 16.022 16.969C15.9998 16.9598 15.9797 16.9464 15.9628 16.9294C15.9458 16.9125 15.9324 16.8924 15.9232 16.8703C15.9141 16.8481 15.9094 16.8244 15.9094 16.8005V12.9869C15.9094 11.9837 15.5518 11.3069 14.6542 11.3069C14.3745 11.3084 14.1021 11.3965 13.8744 11.5589C13.6467 11.7213 13.4747 11.9501 13.3822 12.2141C13.3189 12.4091 13.2912 12.614 13.3006 12.8189V16.8005C13.3006 16.8495 13.2811 16.8965 13.2464 16.9311C13.2118 16.9658 13.1648 16.9853 13.1158 16.9853H11.0038C10.9796 16.9853 10.9557 16.9805 10.9334 16.9712C10.9111 16.9618 10.8909 16.9482 10.8739 16.931C10.857 16.9138 10.8436 16.8934 10.8346 16.871C10.8255 16.8486 10.821 16.8246 10.8214 16.8005C10.8214 15.7877 10.8478 10.8701 10.8214 9.71327C10.821 9.68912 10.8255 9.66514 10.8346 9.64273C10.8436 9.62033 10.857 9.59994 10.8739 9.58274C10.8909 9.56555 10.9111 9.5519 10.9334 9.54258C10.9557 9.53327 10.9796 9.52847 11.0038 9.52847H13.111C13.1353 9.52815 13.1595 9.53271 13.1821 9.54188C13.2046 9.55106 13.2251 9.56466 13.2424 9.58188C13.2596 9.59911 13.2732 9.61961 13.2824 9.64217C13.2915 9.66474 13.2961 9.68892 13.2958 9.71327V10.5845C13.5203 10.1948 13.8472 9.87399 14.2411 9.65695C14.635 9.4399 15.0808 9.33488 15.5302 9.35327C17.1598 9.35327 18.3838 10.4189 18.3838 12.7133L18.3886 16.8005ZM13.3006 10.6085V10.5821L13.2838 10.6085H13.3006ZM13.2838 10.6085H13.3006V10.5821L13.2838 10.6085ZM13.2838 10.6085H13.3006V10.5821L13.2838 10.6085ZM13.2838 10.6085H13.3006V10.5821L13.2838 10.6085ZM13.2838 10.6085H13.3006V10.5821L13.2838 10.6085ZM13.2838 10.6085H13.3006V10.5821L13.2838 10.6085ZM13.2838 10.6085H13.3006V10.5821L13.2838 10.6085ZM13.2838 10.6085H13.3006V10.5821L13.2838 10.6085ZM13.2838 10.6085H13.3006V10.5821L13.2838 10.6085ZM13.2838 10.6085H13.3006V10.5821L13.2838 10.6085ZM13.2838 10.6085H13.3006V10.5821L13.2838 10.6085ZM13.2838 10.6085H13.3006V10.5821L13.2838 10.6085ZM13.2838 10.6085H13.3006V10.5821L13.2838 10.6085ZM13.2838 10.6085H13.3006V10.5821L13.2838 10.6085ZM13.2838 10.6085H13.3006V10.5821L13.2838 10.6085Z" fill="white"/>
</svg>
