<svg width="24" height="24" viewBox="0 0 24 24" fill="none" xmlns="http://www.w3.org/2000/svg">
<path d="M5.60156 16.2476C5.79836 16.2524 5.63516 16.2356 5.60156 16.2476Z" fill="white"/>
<path d="M5.60156 16.2476C5.79836 16.2524 5.63516 16.2356 5.60156 16.2476Z" fill="white"/>
<path d="M5.60156 16.2476C5.79836 16.2524 5.63516 16.2356 5.60156 16.2476Z" fill="white"/>
<path d="M5.60156 16.2476C5.79836 16.2524 5.63516 16.2356 5.60156 16.2476Z" fill="white"/>
<path d="M5.60156 16.2476C5.79836 16.2524 5.63516 16.2356 5.60156 16.2476Z" fill="white"/>
<path d="M5.60156 16.2476C5.79836 16.2524 5.63516 16.2356 5.60156 16.2476Z" fill="white"/>
<path d="M5.60156 16.2476C5.79836 16.2524 5.63516 16.2356 5.60156 16.2476Z" fill="white"/>
<path d="M5.60156 16.2476C5.79836 16.2524 5.63516 16.2356 5.60156 16.2476Z" fill="white"/>
<path d="M5.60156 16.2476C5.79836 16.2524 5.63516 16.2356 5.60156 16.2476Z" fill="white"/>
<path d="M5.60156 16.2476C5.79836 16.2524 5.63516 16.2356 5.60156 16.2476Z" fill="white"/>
<path d="M5.60156 16.2476C5.79836 16.2524 5.63516 16.2356 5.60156 16.2476Z" fill="white"/>
<path d="M5.60156 16.2476C5.79836 16.2524 5.63516 16.2356 5.60156 16.2476Z" fill="white"/>
<path d="M5.60156 16.2476C5.79836 16.2524 5.63516 16.2356 5.60156 16.2476Z" fill="white"/>
<path d="M5.60156 16.2476C5.79836 16.2524 5.63516 16.2356 5.60156 16.2476Z" fill="white"/>
<path d="M5.60156 16.2476C5.79836 16.2524 5.63516 16.2356 5.60156 16.2476Z" fill="white"/>
<path d="M5.60156 16.2476C5.79836 16.2524 5.63516 16.2356 5.60156 16.2476Z" fill="white"/>
<path d="M5.60156 16.2476C5.79836 16.2524 5.63516 16.2356 5.60156 16.2476Z" fill="white"/>
<path d="M5.60156 16.2476C5.79836 16.2524 5.63516 16.2356 5.60156 16.2476Z" fill="white"/>
<path d="M5.60156 16.2476C5.79836 16.2524 5.63516 16.2356 5.60156 16.2476Z" fill="white"/>
<path d="M5.60156 16.2476C5.79836 16.2524 5.63516 16.2356 5.60156 16.2476Z" fill="white"/>
<path d="M11.8823 0.996094C9.71071 0.996094 7.58784 1.64006 5.78219 2.84656C3.97654 4.05306 2.5692 5.7679 1.73815 7.77423C0.907101 9.78056 0.689661 11.9883 1.11333 14.1182C1.53699 16.2481 2.58274 18.2045 4.11832 19.7401C5.6539 21.2757 7.61035 22.3214 9.74026 22.7451C11.8702 23.1688 14.0779 22.9513 16.0842 22.1203C18.0905 21.2892 19.8054 19.8819 21.0119 18.0763C22.2184 16.2706 22.8623 14.1477 22.8623 11.9761C22.8592 9.06499 21.7013 6.27403 19.6429 4.21557C17.5844 2.15711 14.7935 0.99927 11.8823 0.996094ZM18.9599 7.98009C18.9642 8.05336 18.942 8.12573 18.8975 8.18409C18.6115 8.58654 18.2678 8.94477 17.8775 9.24729C17.8199 9.29289 17.7215 9.33849 17.7215 9.42009C17.7215 11.5345 17.1815 13.6465 15.6407 15.1801C13.6799 17.1289 10.7327 17.6593 8.11915 16.9369C7.61467 16.7968 7.12699 16.602 6.66475 16.3561C6.51115 16.2721 6.35995 16.1857 6.21115 16.0873C6.17275 16.0561 6.14635 16.0297 6.17755 16.0081C6.20875 15.9865 6.23275 15.9913 6.35035 16.0081C7.08754 16.0736 7.83017 15.9786 8.52715 15.7297C8.90635 15.5977 9.72715 15.3313 9.96715 14.9713C9.96715 14.9713 9.96715 14.9713 9.98395 14.9545C9.88795 14.9329 9.79435 14.9329 9.69835 14.9161C8.97835 14.7121 8.03995 14.3569 7.60075 13.1593C7.57195 13.0873 7.60075 13.0513 7.67275 13.0657C8.00494 13.1114 8.34246 13.1008 8.67115 13.0345C8.55474 13.0133 8.44118 12.9787 8.33275 12.9313C7.8882 12.7514 7.49946 12.4566 7.20636 12.0771C6.91326 11.6975 6.72634 11.2469 6.66475 10.7713C6.6506 10.672 6.64578 10.5715 6.65035 10.4713C6.65035 10.3993 6.68635 10.3777 6.74635 10.4161C7.06399 10.5781 7.41075 10.6752 7.76635 10.7017C7.65115 10.6129 7.54555 10.5145 7.43995 10.4161C6.66475 9.68169 6.36475 8.18649 6.98395 7.25529C7.03435 7.18089 7.06795 7.18089 7.13035 7.25529C8.54875 8.87289 10.2983 9.62649 12.4103 9.94089C12.4679 9.94089 12.4727 9.94089 12.4655 9.87849C12.398 9.5131 12.4029 9.138 12.4799 8.77449C12.5751 8.39259 12.7529 8.03621 13.0007 7.73049C13.2396 7.43324 13.5369 7.18819 13.8743 7.01049C14.1878 6.84994 14.5292 6.75134 14.8799 6.72009C14.8871 6.72574 14.896 6.72881 14.9051 6.72881C14.9143 6.72881 14.9232 6.72574 14.9303 6.72009H14.8799H14.9615C15.6493 6.67795 16.3261 6.90813 16.8455 7.36089C16.8945 7.40224 16.9395 7.44804 16.9799 7.49769C16.9935 7.51127 17.0105 7.5209 17.0291 7.52555C17.0477 7.5302 17.0672 7.5297 17.0855 7.52409C17.6199 7.39357 18.1359 7.19685 18.6215 6.93849C18.6323 6.93301 18.6443 6.93016 18.6563 6.93016C18.6684 6.93016 18.6804 6.93301 18.6911 6.93849C18.7127 6.95529 18.6911 6.98409 18.6911 7.00569C18.5977 7.29209 18.4511 7.55833 18.2591 7.79049C18.1367 7.94169 17.8295 8.32089 17.6231 8.35449C18.0675 8.28136 18.5006 8.1515 18.9119 7.96809C18.9647 7.94409 18.9599 7.93449 18.9599 7.96809V7.98009Z" fill="white"/>
<path d="M5.60156 16.2476C5.79836 16.2524 5.63516 16.2356 5.60156 16.2476Z" fill="white"/>
<path d="M5.60156 16.2476C5.79836 16.2524 5.63516 16.2356 5.60156 16.2476Z" fill="white"/>
<path d="M5.60156 16.2476C5.79836 16.2524 5.63516 16.2356 5.60156 16.2476Z" fill="white"/>
<path d="M5.60156 16.2476C5.79836 16.2524 5.63516 16.2356 5.60156 16.2476Z" fill="white"/>
<path d="M5.60156 16.2476C5.79836 16.2524 5.63516 16.2356 5.60156 16.2476Z" fill="white"/>
<path d="M5.60156 16.2476C5.79836 16.2524 5.63516 16.2356 5.60156 16.2476Z" fill="white"/>
<path d="M5.60156 16.2476C5.79836 16.2524 5.63516 16.2356 5.60156 16.2476Z" fill="white"/>
<path d="M5.60156 16.2476C5.79836 16.2524 5.63516 16.2356 5.60156 16.2476Z" fill="white"/>
<path d="M5.60156 16.2476C5.79836 16.2524 5.63516 16.2356 5.60156 16.2476Z" fill="white"/>
<path d="M5.60156 16.2476C5.79836 16.2524 5.63516 16.2356 5.60156 16.2476Z" fill="white"/>
<path d="M5.60156 16.2476C5.79836 16.2524 5.63516 16.2356 5.60156 16.2476Z" fill="white"/>
<path d="M5.60156 16.2476C5.79836 16.2524 5.63516 16.2356 5.60156 16.2476Z" fill="white"/>
<path d="M5.60156 16.2476C5.79836 16.2524 5.63516 16.2356 5.60156 16.2476Z" fill="white"/>
<path d="M5.60156 16.2476C5.79836 16.2524 5.63516 16.2356 5.60156 16.2476Z" fill="white"/>
<path d="M5.60156 16.2476C5.79836 16.2524 5.63516 16.2356 5.60156 16.2476Z" fill="white"/>
<path d="M5.60156 16.2476C5.79836 16.2524 5.63516 16.2356 5.60156 16.2476Z" fill="white"/>
<path d="M5.60156 16.2476C5.79836 16.2524 5.63516 16.2356 5.60156 16.2476Z" fill="white"/>
<path d="M5.60156 16.2476C5.79836 16.2524 5.63516 16.2356 5.60156 16.2476Z" fill="white"/>
<path d="M5.60156 16.2476C5.79836 16.2524 5.63516 16.2356 5.60156 16.2476Z" fill="white"/>
<path d="M5.60156 16.2476C5.79836 16.2524 5.63516 16.2356 5.60156 16.2476Z" fill="white"/>
<path d="M5.60156 16.2476C5.79836 16.2524 5.63516 16.2356 5.60156 16.2476Z" fill="white"/>
</svg>
