<svg width="161" height="61" viewBox="0 0 161 61" fill="none" xmlns="http://www.w3.org/2000/svg">
<g clip-path="url(#clip0_281_586)">
<path d="M84.639 18.2938C84.639 20.0956 83.1875 21.547 81.3857 21.547C79.5839 21.547 78.1325 20.0956 78.1325 18.2938C78.1325 16.492 79.5339 15.0405 81.3857 15.0405C83.2376 15.0906 84.639 16.542 84.639 18.2938ZM71.2256 24.8503C71.2256 25.1506 71.2256 25.6511 71.2256 25.6511C71.2256 25.6511 69.674 23.6491 66.3707 23.6491C60.9153 23.6491 56.661 27.8033 56.661 33.559C56.661 39.2647 60.8652 43.4689 66.3707 43.4689C69.7241 43.4689 71.2256 41.4169 71.2256 41.4169V42.2677C71.2256 42.6681 71.5259 42.9684 71.9263 42.9684H75.9803V24.1496C75.9803 24.1496 72.2766 24.1496 71.9263 24.1496C71.5259 24.1496 71.2256 24.5 71.2256 24.8503ZM71.2256 36.9124C70.4748 38.0135 68.9733 38.9644 67.1715 38.9644C63.9683 38.9644 61.5159 36.9624 61.5159 33.559C61.5159 30.1556 63.9683 28.1536 67.1715 28.1536C68.9233 28.1536 70.5249 29.1546 71.2256 30.2057V36.9124ZM78.9833 24.1496H83.7881V42.9684H78.9833V24.1496ZM150.755 23.6491C147.452 23.6491 145.9 25.6511 145.9 25.6511V15.0906H141.095V42.9684C141.095 42.9684 144.799 42.9684 145.149 42.9684C145.55 42.9684 145.85 42.6181 145.85 42.2677V41.4169C145.85 41.4169 147.402 43.4689 150.705 43.4689C156.16 43.4689 160.415 39.2647 160.415 33.559C160.415 27.8533 156.16 23.6491 150.755 23.6491ZM149.954 38.9144C148.102 38.9144 146.651 37.9634 145.9 36.8623V30.1556C146.651 29.1546 148.253 28.1036 149.954 28.1036C153.157 28.1036 155.61 30.1056 155.61 33.509C155.61 36.9124 153.157 38.9144 149.954 38.9144ZM138.593 31.8073V43.0185H133.788V32.3578C133.788 29.2547 132.787 28.0035 130.084 28.0035C128.633 28.0035 127.131 28.7542 126.181 29.8553V42.9684H121.376V24.1496H125.18C125.58 24.1496 125.88 24.5 125.88 24.8503V25.6511C127.282 24.1997 129.133 23.6491 130.985 23.6491C133.087 23.6491 134.839 24.2497 136.241 25.4509C137.942 26.8523 138.593 28.6541 138.593 31.8073ZM109.714 23.6491C106.411 23.6491 104.859 25.6511 104.859 25.6511V15.0906H100.054V42.9684C100.054 42.9684 103.758 42.9684 104.108 42.9684C104.509 42.9684 104.809 42.6181 104.809 42.2677V41.4169C104.809 41.4169 106.361 43.4689 109.664 43.4689C115.119 43.4689 119.374 39.2647 119.374 33.559C119.424 27.8533 115.17 23.6491 109.714 23.6491ZM108.913 38.9144C107.061 38.9144 105.61 37.9634 104.859 36.8623V30.1556C105.61 29.1546 107.212 28.1036 108.913 28.1036C112.116 28.1036 114.569 30.1056 114.569 33.509C114.569 36.9124 112.116 38.9144 108.913 38.9144ZM95.9002 23.6491C97.3517 23.6491 98.1025 23.8994 98.1025 23.8994V28.3538C98.1025 28.3538 94.0985 27.0025 91.5959 29.8553V43.0185H86.7911V24.1496C86.7911 24.1496 90.4948 24.1496 90.8452 24.1496C91.2456 24.1496 91.5459 24.5 91.5459 24.8503V25.6511C92.4468 24.6001 94.3987 23.6491 95.9002 23.6491ZM46.0004 41.2667C45.7501 40.6661 45.4999 40.0155 45.2496 39.4649C44.8492 38.564 44.4488 37.7132 44.0985 36.9124L44.0484 36.8623C40.595 29.3548 36.8913 21.7472 32.9874 14.2397L32.8372 13.9394C32.4368 13.1887 32.0364 12.3879 31.636 11.5871C31.1355 10.6862 30.635 9.73521 29.8342 8.8343C28.2326 6.8323 25.9303 5.7312 23.4779 5.7312C20.9754 5.7312 18.7231 6.8323 17.0715 8.7342C16.3207 9.63511 15.7702 10.5861 15.2697 11.487C14.8693 12.2878 14.4689 13.0886 14.0685 13.8393L13.9183 14.1396C10.0645 21.6471 6.31071 29.2547 2.85726 36.7622L2.80721 36.8623C2.45686 37.6631 2.05646 38.514 1.65606 39.4149C1.40581 39.9654 1.15556 40.566 0.905311 41.2167C0.25466 43.0685 0.0544602 44.8203 0.30471 46.6221C0.855261 50.3758 3.35776 53.529 6.81121 54.9304C8.11251 55.481 9.46386 55.7312 10.8653 55.7312C11.2657 55.7312 11.7662 55.6811 12.1666 55.6311C13.8182 55.4309 15.5199 54.8804 17.1716 53.9294C19.2236 52.7782 21.1756 51.1266 23.3778 48.7242C25.58 51.1266 27.582 52.7782 29.584 53.9294C31.2356 54.8804 32.9373 55.4309 34.589 55.6311C34.9894 55.6811 35.4899 55.7312 35.8903 55.7312C37.2917 55.7312 38.6931 55.481 39.9443 54.9304C43.4478 53.529 45.9003 50.3258 46.4508 46.6221C46.8512 44.8703 46.651 43.1186 46.0004 41.2667ZM23.4278 43.8693C20.7251 40.4659 18.9734 37.2627 18.3728 34.56C18.1225 33.4089 18.0725 32.4079 18.2226 31.507C18.3227 30.7062 18.623 30.0055 19.0234 29.4049C19.9744 28.0535 21.576 27.2027 23.4278 27.2027C25.2797 27.2027 26.9313 28.0035 27.8322 29.4049C28.2326 30.0055 28.5329 30.7062 28.633 31.507C28.7832 32.4079 28.7331 33.4589 28.4829 34.56C27.8823 37.2127 26.1305 40.4159 23.4278 43.8693ZM43.3978 46.2217C43.0474 48.8243 41.2957 51.0765 38.8432 52.0775C37.642 52.578 36.3407 52.7282 35.0394 52.578C33.7882 52.4279 32.5369 52.0275 31.2356 51.2767C29.4338 50.2757 27.632 48.7242 25.5299 46.4219C28.8332 42.3678 30.8352 38.6641 31.586 35.3608C31.9363 33.8093 31.9864 32.4079 31.8362 31.1066C31.636 29.8553 31.1856 28.7042 30.4849 27.7032C28.9333 25.4509 26.3307 24.1496 23.4278 24.1496C20.5249 24.1496 17.9223 25.501 16.3708 27.7032C15.6701 28.7042 15.2196 29.8553 15.0194 31.1066C14.8192 32.4079 14.8693 33.8593 15.2697 35.3608C16.0204 38.6641 18.0725 42.4179 21.3257 46.4719C19.2737 48.7742 17.4218 50.3258 15.62 51.3268C14.3187 52.0775 13.0675 52.4779 11.8162 52.6281C10.4649 52.7782 9.16356 52.578 8.01241 52.1276C5.55996 51.1266 3.80821 48.8743 3.45786 46.2717C3.30771 45.0205 3.40781 43.7692 3.90831 42.3678C4.05846 41.8673 4.30871 41.3668 4.55896 40.7662C4.90931 39.9654 5.30971 39.1146 5.71011 38.2637L5.76016 38.1636C9.21361 30.7062 12.9173 23.0986 16.7712 15.6912L16.9213 15.3909C17.3217 14.6401 17.7221 13.8393 18.1225 13.0886C18.5229 12.2878 18.9734 11.537 19.5239 10.8864C20.575 9.68516 21.9764 9.0345 23.5279 9.0345C25.0795 9.0345 26.4809 9.68516 27.5319 10.8864C28.0825 11.537 28.5329 12.2878 28.9333 13.0886C29.3337 13.8393 29.7341 14.6401 30.1345 15.3909L30.2847 15.6912C34.0885 23.1486 37.7922 30.7562 41.2456 38.2137V38.2637C41.646 39.0645 41.9964 39.9654 42.3968 40.7662C42.647 41.3668 42.8973 41.8673 43.0474 42.3678C43.4478 43.6691 43.598 44.9204 43.3978 46.2217Z" fill="#687D80"/>
</g>
<defs>
<clipPath id="clip0_281_586">
<rect width="160" height="60" fill="white" transform="translate(0.205078 0.731323)"/>
</clipPath>
</defs>
</svg>
