<svg width="170" height="61" viewBox="0 0 170 61" fill="none" xmlns="http://www.w3.org/2000/svg">
<g clip-path="url(#clip0_281_597)">
<path d="M0.455078 3.23132H36.8834V21.4455H18.6692L0.455078 3.23132ZM0.455078 21.4455H18.6692L36.8834 39.6597H0.455078V21.4455ZM0.455078 39.6597H18.6692V57.8738L0.455078 39.6597Z" fill="#687D80"/>
<path d="M57.4375 17.6005H72.1625V22.2797H63.0108V28.7822H72.1625V33.358H63.0108V41.6839H57.4375V17.6005ZM75.19 25.1005H80.4541V28.5755C80.7291 27.3814 81.2916 26.4647 82.14 25.823C83.01 25.1572 83.9758 24.8255 85.03 24.8255C85.5808 24.8255 86.04 24.8722 86.4058 24.963V29.8489C85.8808 29.7855 85.3525 29.7514 84.8233 29.7455C83.3783 29.7455 82.29 30.2147 81.555 31.1555C80.8225 32.073 80.4541 33.4489 80.4541 35.2847V41.6839H75.1925V25.1005H75.19ZM94.7158 42.1314C93.1108 42.1314 91.7108 41.7522 90.5183 40.9955C89.3483 40.2389 88.4183 39.1647 87.835 37.8989C87.2158 36.5697 86.9041 35.0655 86.9041 33.3922C86.9041 31.7405 87.2275 30.2489 87.8691 28.9197C88.4708 27.6355 89.4258 26.5497 90.6216 25.7889C91.8358 25.0322 93.2241 24.653 94.785 24.653C95.9541 24.653 96.9991 24.9064 97.9158 25.4105C98.8325 25.9164 99.5208 26.6047 99.98 27.4747V25.1005H105.209V41.6839H99.98V39.3439C99.5208 40.1697 98.81 40.8455 97.8466 41.3739C96.8833 41.8847 95.8066 42.1447 94.7158 42.1314ZM96.23 37.7614C97.4908 37.7614 98.4658 37.3489 99.1541 36.523C99.8425 35.6972 100.187 34.653 100.187 33.3922C100.187 32.1539 99.8425 31.1214 99.1541 30.2955C98.4658 29.4697 97.4908 29.0572 96.23 29.0572C95.0358 29.0572 94.0741 29.458 93.34 30.2614C92.6291 31.0647 92.2733 32.1072 92.2733 33.3922C92.2733 34.6772 92.6291 35.7314 93.34 36.5572C94.0741 37.3605 95.0375 37.7614 96.23 37.7614ZM108.891 25.1005H114.155V27.5089C114.523 26.6589 115.118 25.9705 115.943 25.4447C116.793 24.9189 117.779 24.653 118.902 24.653C121.517 24.653 123.25 25.673 124.097 27.7155C124.564 26.7897 125.294 26.0239 126.197 25.5139C127.162 24.933 128.27 24.6355 129.396 24.653C133.318 24.653 135.279 26.8997 135.279 31.3964V41.6839H129.981V32.3597C129.981 31.2372 129.774 30.4114 129.362 29.883C128.948 29.3564 128.329 29.0914 127.503 29.0914C126.609 29.0914 125.921 29.4014 125.439 30.0205C124.957 30.6172 124.717 31.6597 124.717 33.1514V41.6839H119.418V32.3255C119.418 31.2022 119.212 30.3872 118.799 29.883C118.411 29.3564 117.802 29.0914 116.977 29.0914C116.059 29.0914 115.359 29.4014 114.877 30.0205C114.396 30.6172 114.155 31.6597 114.155 33.1514V41.6839H108.892V25.1005H108.891ZM155.054 32.5322C155.054 33.2422 155.007 34.0114 154.914 34.8372H142.668C142.715 35.9155 143.081 36.7397 143.769 37.3147C144.457 37.8872 145.388 38.1747 146.556 38.1747C148.185 38.1747 149.217 37.6805 149.652 36.6947H154.813C154.56 38.3239 153.666 39.6414 152.129 40.6514C150.616 41.6372 148.757 42.1314 146.556 42.1314C143.712 42.1314 141.476 41.3622 139.847 39.8255C138.242 38.288 137.438 36.1447 137.438 33.3922C137.438 31.603 137.805 30.0547 138.539 28.7472C139.248 27.4414 140.342 26.3847 141.67 25.7197C143.024 25.0097 144.595 24.653 146.386 24.653C148.082 24.653 149.583 24.9855 150.891 25.6514C152.221 26.3172 153.242 27.2455 153.952 28.438C154.687 29.6322 155.054 30.9964 155.054 32.5322ZM149.857 31.5689C149.834 30.468 149.525 29.6297 148.927 29.0572C148.332 28.4847 147.471 28.1972 146.347 28.1972C145.224 28.1972 144.33 28.5064 143.664 29.1264C143.022 29.723 142.69 30.5364 142.666 31.5689H149.857ZM157.375 25.1005H162.639V28.5755C162.914 27.3814 163.477 26.4647 164.325 25.823C165.148 25.1747 166.167 24.823 167.215 24.8255C167.765 24.8255 168.225 24.8722 168.591 24.963V29.8489C168.066 29.7855 167.537 29.7514 167.008 29.7455C165.563 29.7455 164.475 30.2147 163.74 31.1555C163.005 32.073 162.639 33.4489 162.639 35.2847V41.6839H157.375V25.1005Z" fill="#687D80"/>
</g>
<defs>
<clipPath id="clip0_281_597">
<rect width="168.75" height="60" fill="white" transform="translate(0.455078 0.731323)"/>
</clipPath>
</defs>
</svg>
