<svg width="139" height="61" viewBox="0 0 139 61" fill="none" xmlns="http://www.w3.org/2000/svg">
<g clip-path="url(#clip0_281_600)">
<path d="M19.2846 48.3141C17.1973 48.6806 15.0733 48.7905 12.876 49.0832L6.17422 29.4544V49.9256C4.0869 50.1453 2.18264 50.4382 0.205078 50.7312V13.2312H5.77163L13.3887 34.5084V13.2312H19.2846V48.3141ZM30.8203 26.9641C33.091 26.9641 36.5699 26.8542 38.6573 26.8542V32.7135C36.0571 32.7135 33.0177 32.7135 30.8203 32.8234V41.5393C34.2628 41.3197 37.7052 41.0264 41.184 40.9166V46.5559L24.9608 47.8379V13.2312H41.184V19.0906H30.8203V26.9641V26.9641ZM62.9735 19.0907H56.8945V46.0438C54.9169 46.0438 52.9394 46.0438 51.0354 46.1168V19.0907H44.9564V13.2312H62.9738L62.9735 19.0907V19.0907ZM72.495 26.5614H80.5151V32.4206H72.495V45.7143H66.7451V13.2312H83.1152V19.0906H72.495V26.5614V26.5614ZM92.6366 40.5871C95.9692 40.6602 99.3381 40.917 102.598 41.0998V46.886C97.3608 46.5561 92.124 46.227 86.7773 46.1168V13.2312H92.6366V40.5871ZM107.541 47.2888C109.409 47.3989 111.387 47.5087 113.291 47.7281V13.2312H107.541V47.2888V47.2888ZM138.962 13.2312L131.528 31.0657L138.962 50.7312C136.765 50.4382 134.568 50.0354 132.37 49.6691L128.159 38.8295L123.875 48.7905C121.75 48.424 119.7 48.3141 117.576 48.0211L125.12 30.8458L118.308 13.2312H124.607L128.452 23.0823L132.554 13.2312H138.962V13.2312Z" fill="#687D80"/>
</g>
<defs>
<clipPath id="clip0_281_600">
<rect width="138.75" height="60" fill="white" transform="translate(0.205078 0.731323)"/>
</clipPath>
</defs>
</svg>
