<svg width="194" height="61" viewBox="0 0 194 61" fill="none" xmlns="http://www.w3.org/2000/svg">
<g clip-path="url(#clip0_281_622)">
<path d="M78.0917 32.8092L74.7453 24.0511C74.6088 23.6929 74.0869 23.6929 73.9501 24.0511L70.6042 32.8097C70.5805 32.872 70.5726 32.9389 70.5812 33.0048C70.5899 33.0706 70.6148 33.1335 70.6539 33.188C70.6929 33.2425 70.745 33.287 70.8056 33.3177C70.8663 33.3484 70.9336 33.3645 71.002 33.3644H77.6939C77.7623 33.3644 77.8297 33.3484 77.8903 33.3176C77.9509 33.2868 78.003 33.2423 78.042 33.1878C78.0811 33.1333 78.106 33.0704 78.1146 33.0045C78.1232 32.9386 78.1152 32.8717 78.0914 32.8094L78.0917 32.8092ZM79.6375 37.732H69.0587C68.9721 37.732 68.8877 37.7577 68.8166 37.8057C68.7456 37.8537 68.6913 37.9216 68.6612 38.0004L66.5785 43.4499C66.5484 43.5287 66.4942 43.5966 66.4231 43.6446C66.3521 43.6926 66.2676 43.7183 66.181 43.7183H61.5958C61.5265 43.7183 61.4583 43.7018 61.397 43.6702C61.3358 43.6387 61.2835 43.593 61.2447 43.5373C61.2058 43.4815 61.1817 43.4174 61.1743 43.3505C61.1669 43.2836 61.1765 43.2159 61.2023 43.1535L71.7588 17.6209C71.7904 17.5446 71.8448 17.4793 71.915 17.4333C71.9852 17.3873 72.0679 17.3628 72.1526 17.3629H76.543C76.7161 17.3629 76.8718 17.465 76.9366 17.6209L87.4928 43.1532C87.5187 43.2157 87.5284 43.2834 87.5211 43.3504C87.5137 43.4174 87.4896 43.4816 87.4508 43.5374C87.4119 43.5932 87.3595 43.6389 87.2983 43.6705C87.237 43.7021 87.1686 43.7186 87.0993 43.7186H82.5149C82.4283 43.7186 82.3438 43.6928 82.2728 43.6448C82.2017 43.5967 82.1475 43.5287 82.1174 43.4499L80.0344 38.0004C80.0043 37.9216 79.9501 37.8537 79.879 37.8057C79.808 37.7577 79.7235 37.732 79.637 37.732H79.6375ZM89.6411 26.3235H93.5628C93.6752 26.3235 93.7831 26.3669 93.8626 26.4441C93.9421 26.5213 93.9868 26.626 93.9868 26.7352V43.3066C93.9868 43.4158 93.9421 43.5205 93.8626 43.5977C93.7831 43.675 93.6752 43.7183 93.5628 43.7183H89.6411C89.5286 43.7183 89.4207 43.675 89.3412 43.5977C89.2617 43.5205 89.217 43.4158 89.217 43.3066V26.735C89.217 26.6258 89.2617 26.521 89.3412 26.4438C89.4207 26.3666 89.5286 26.3232 89.6411 26.3232V26.3235ZM108.289 30.3545C108.289 30.4637 108.245 30.5684 108.165 30.6456C108.086 30.7229 107.978 30.7662 107.865 30.7662H107.747C105.808 30.7662 104.385 31.218 103.481 32.1216C102.575 33.0252 102.124 34.5189 102.124 36.6022V43.3066C102.124 43.4158 102.079 43.5205 101.999 43.5977C101.92 43.675 101.812 43.7183 101.7 43.7183H97.8163C97.7039 43.7183 97.596 43.675 97.5165 43.5977C97.437 43.5205 97.3923 43.4158 97.3923 43.3066V26.735C97.3923 26.6258 97.437 26.521 97.5165 26.4438C97.596 26.3666 97.7039 26.3232 97.8163 26.3232H101.661C101.773 26.3232 101.881 26.3666 101.96 26.4438C102.04 26.521 102.085 26.6258 102.085 26.735V30.0128H102.162C102.628 28.6574 103.364 27.6163 104.373 26.8878C105.381 26.1602 106.622 25.796 108.096 25.796H108.289V30.3542V30.3545ZM119.012 30.2014C118.9 30.2014 118.792 30.2447 118.713 30.3219C118.633 30.3992 118.588 30.5039 118.588 30.6131V37.5058C118.588 38.2087 118.73 38.7107 119.015 39.0118C119.299 39.3129 119.79 39.4636 120.488 39.4636H120.879C120.991 39.4636 121.099 39.507 121.178 39.5842C121.258 39.6614 121.303 39.7662 121.303 39.8754V43.3439C121.303 43.4531 121.258 43.5579 121.178 43.6351C121.099 43.7123 120.991 43.7557 120.879 43.7557H119.208C117.476 43.7557 116.145 43.3228 115.214 42.4568C114.283 41.5908 113.818 40.3049 113.818 38.5977V30.6131C113.818 30.5039 113.773 30.3992 113.694 30.3219C113.614 30.2447 113.506 30.2014 113.394 30.2014H110.946C110.834 30.2014 110.726 30.158 110.646 30.0808C110.567 30.0036 110.522 29.8988 110.522 29.7896V26.735C110.522 26.6258 110.567 26.521 110.646 26.4438C110.726 26.3666 110.834 26.3232 110.946 26.3232H113.394C113.507 26.3232 113.615 26.2799 113.694 26.2027C113.774 26.1254 113.818 26.0207 113.818 25.9115V19.7695C113.818 19.6603 113.863 19.5556 113.943 19.4784C114.022 19.4012 114.13 19.3578 114.242 19.3578H118.164C118.277 19.3578 118.384 19.4012 118.464 19.4784C118.543 19.5556 118.588 19.6603 118.588 19.7695V25.9115C118.588 26.0207 118.633 26.1254 118.712 26.2027C118.792 26.2799 118.9 26.3232 119.012 26.3232H121.848C121.96 26.3232 122.068 26.3666 122.148 26.4438C122.227 26.521 122.272 26.6258 122.272 26.735V29.7899C122.272 29.8991 122.227 30.0038 122.148 30.081C122.068 30.1582 121.96 30.2016 121.848 30.2016H119.012V30.2014ZM136.97 38.5601C137.862 37.6565 138.308 36.4768 138.308 35.0206C138.308 33.5654 137.862 32.3851 136.97 31.4815C136.078 30.5779 134.908 30.1261 133.46 30.1261C132.012 30.1261 130.843 30.5779 129.951 31.4815C129.059 32.3851 128.613 33.5654 128.613 35.0206C128.613 36.4768 129.059 37.6565 129.951 38.5601C130.843 39.4636 132.012 39.9154 133.46 39.9154C134.908 39.9154 136.078 39.4636 136.97 38.5601ZM127.915 43.1911C126.597 42.4634 125.556 41.4026 124.794 40.0096C124.03 38.6166 123.649 36.9538 123.649 35.0206C123.649 33.0883 124.03 31.425 124.794 30.032C125.556 28.639 126.597 27.579 127.915 26.8505C129.234 26.1226 130.681 25.7586 132.258 25.7586C133.654 25.7586 134.85 26.0221 135.846 26.5491C136.84 27.0761 137.635 27.817 138.23 28.7708H138.308V26.735C138.308 26.6258 138.353 26.521 138.432 26.4438C138.512 26.3666 138.62 26.3232 138.732 26.3232H142.615C142.727 26.3232 142.835 26.3666 142.915 26.4438C142.994 26.521 143.039 26.6258 143.039 26.735V43.3063C143.039 43.4155 142.994 43.5203 142.915 43.5975C142.835 43.6747 142.727 43.7181 142.615 43.7181H138.732C138.62 43.7181 138.512 43.6747 138.432 43.5975C138.353 43.5203 138.308 43.4155 138.308 43.3063V41.2708H138.23C137.635 42.2252 136.84 42.9652 135.846 43.4922C134.85 44.0192 133.655 44.2827 132.258 44.2827C130.681 44.2827 129.234 43.9187 127.915 43.1911V43.1911ZM159.188 38.5601C160.08 37.6565 160.526 36.4768 160.526 35.0206C160.526 33.5654 160.08 32.3851 159.188 31.4815C158.296 30.5779 157.126 30.1261 155.679 30.1261C154.231 30.1261 153.061 30.5779 152.169 31.4815C151.277 32.3851 150.831 33.5654 150.831 35.0206C150.831 36.4768 151.277 37.6565 152.169 38.5601C153.061 39.4636 154.231 39.9154 155.679 39.9154C157.126 39.9154 158.296 39.4636 159.188 38.5601ZM153.294 43.4922C152.298 42.9652 151.503 42.2252 150.909 41.2708H150.831V43.3063C150.831 43.4155 150.786 43.5203 150.707 43.5975C150.627 43.6747 150.519 43.7181 150.407 43.7181H146.485C146.373 43.7181 146.265 43.6747 146.185 43.5975C146.106 43.5203 146.061 43.4155 146.061 43.3063V17.7738C146.061 17.6646 146.106 17.5599 146.185 17.4827C146.265 17.4054 146.373 17.3621 146.485 17.3621H150.407C150.519 17.3621 150.627 17.4054 150.707 17.4827C150.786 17.5599 150.831 17.6646 150.831 17.7738V28.7705H150.909C151.503 27.8167 152.298 27.0761 153.294 26.5491C154.289 26.0219 155.485 25.7584 156.881 25.7584C158.458 25.7584 159.906 26.1223 161.224 26.8502C162.543 27.5787 163.583 28.6387 164.346 30.0315C165.108 31.4253 165.49 33.0886 165.49 35.0209C165.49 36.9541 165.108 38.6166 164.346 40.0099C163.583 41.4028 162.543 42.4637 161.224 43.1911C159.906 43.919 158.458 44.2832 156.881 44.2832C155.485 44.2832 154.289 44.0197 153.294 43.4924L153.294 43.4922ZM172.097 43.7183H168.176C168.063 43.7183 167.955 43.675 167.876 43.5977C167.796 43.5205 167.752 43.4158 167.752 43.3066V17.7746C167.752 17.6654 167.796 17.5607 167.876 17.4835C167.955 17.4063 168.063 17.3629 168.176 17.3629H172.097C172.21 17.3629 172.318 17.4063 172.397 17.4835C172.477 17.5607 172.522 17.6654 172.522 17.7746V43.3066C172.522 43.4158 172.477 43.5205 172.397 43.5977C172.318 43.675 172.21 43.7183 172.097 43.7183V43.7183ZM181.348 30.3523C180.698 30.8447 180.259 31.5556 180.032 32.4856C179.969 32.7419 180.175 32.9879 180.447 32.9879H187.91C188.169 32.9879 188.373 32.7628 188.331 32.5147C188.181 31.635 187.793 30.9337 187.165 30.4089C186.428 29.794 185.465 29.4866 184.276 29.4866C183.087 29.4866 182.11 29.7751 181.348 30.3523V30.3523ZM190.907 28.1872C192.432 29.8067 193.195 32.0972 193.195 35.0585V35.5504C193.195 35.6596 193.151 35.7643 193.071 35.8415C192.992 35.9187 192.884 35.9621 192.771 35.9621H180.303C180.241 35.9622 180.179 35.9755 180.123 36.001C180.067 36.0265 180.017 36.0637 179.977 36.1098C179.937 36.156 179.908 36.2101 179.892 36.2683C179.875 36.3265 179.872 36.3874 179.883 36.4468C180.082 37.547 180.583 38.4209 181.387 39.0684C182.304 39.8095 183.462 40.1792 184.858 40.1792C186.66 40.1792 188.328 39.4963 189.862 38.1302C190.05 37.9633 190.347 37.9987 190.492 38.2016L192.399 40.8585C192.458 40.9412 192.485 41.0423 192.473 41.1426C192.461 41.2429 192.411 41.3354 192.334 41.4026C191.398 42.1979 190.357 42.869 189.24 43.3983C187.999 43.9879 186.538 44.2832 184.858 44.2832C182.919 44.2832 181.225 43.9 179.777 43.1348C178.329 42.3695 177.205 41.2903 176.404 39.8968C175.602 38.5038 175.202 36.8912 175.202 35.0585C175.202 33.2267 175.589 31.6078 176.365 30.2016C177.14 28.7963 178.226 27.7044 179.623 26.926C181.019 26.1484 182.647 25.7589 184.509 25.7589C187.248 25.7589 189.382 26.5686 190.907 28.1872V28.1872ZM94.4991 20.1972C94.4991 21.7502 93.2023 23.0092 91.6025 23.0092C90.0024 23.0092 88.7056 21.7502 88.7056 20.1969C88.7056 18.6436 90.0026 17.3846 91.6025 17.3846C93.2023 17.3846 94.4991 18.6436 94.4991 20.1969" fill="#687D80"/>
<path d="M23.289 9.9367L4.64169 17.4281C3.60473 17.8447 3.61547 19.275 4.65894 19.6766L23.3839 26.886C25.0292 27.5196 26.8614 27.5196 28.5066 26.886L47.2319 19.6763C48.275 19.275 48.2864 17.845 47.2488 17.4283L28.6021 9.93643C26.9009 9.25296 24.9899 9.25296 23.2887 9.93643" fill="#687D80"/>
<path d="M27.6064 30.8228V48.8333C27.6064 49.6897 28.4961 50.2765 29.3163 49.9608L50.1817 42.0976C50.4144 42.008 50.614 41.8526 50.7546 41.6516C50.8953 41.4505 50.9705 41.2131 50.9704 40.97V22.9598C50.9704 22.1032 50.0807 21.5166 49.2606 21.8323L28.3952 29.6955C28.1625 29.7852 27.9629 29.9406 27.8223 30.1416C27.6817 30.3427 27.6065 30.5801 27.6064 30.8231" fill="#687D80"/>
<path d="M22.7342 31.752L16.5418 34.6549L15.913 34.9499L2.84129 41.031C2.01296 41.4191 0.955078 40.8328 0.955078 39.9391V23.0351C0.955078 22.7117 1.12583 22.4326 1.35482 22.2226C1.44877 22.1318 1.55535 22.0542 1.67145 21.992C1.98356 21.8101 2.42911 21.7615 2.80793 21.907L22.6301 29.5325C23.6377 29.9206 23.7169 31.2914 22.7342 31.7522" fill="#687D80"/>
<path d="M22.7338 31.752L16.5415 34.6548L1.35449 22.2223C1.44845 22.1316 1.55503 22.0541 1.67112 21.992C1.98323 21.8101 2.42877 21.7615 2.8076 21.907L22.6298 29.5325C23.6374 29.9206 23.7165 31.2914 22.7338 31.7522" fill="#687D80"/>
</g>
<defs>
<clipPath id="clip0_281_622">
<rect width="192.5" height="60" fill="white" transform="translate(0.955078 0.731323)"/>
</clipPath>
</defs>
</svg>
