<svg width="142" height="61" viewBox="0 0 142 61" fill="none" xmlns="http://www.w3.org/2000/svg">
<g clip-path="url(#clip0_281_589)">
<path d="M60.502 32.7939C60.502 39.4479 55.2965 44.3512 48.9082 44.3512C42.5199 44.3512 37.3145 39.4479 37.3145 32.7939C37.3145 26.0929 42.5199 21.2366 48.9082 21.2366C55.2965 21.2366 60.502 26.0929 60.502 32.7939ZM55.4268 32.7939C55.4268 28.6357 52.4098 25.7907 48.9082 25.7907C45.4066 25.7907 42.3897 28.6357 42.3897 32.7939C42.3897 36.9103 45.4066 39.797 48.9082 39.797C52.4098 39.797 55.4268 36.9051 55.4268 32.7939Z" fill="#687D80"/>
<path d="M85.5137 32.7939C85.5137 39.4479 80.3082 44.3512 73.9199 44.3512C67.5316 44.3512 62.3262 39.4479 62.3262 32.7939C62.3262 26.0981 67.5316 21.2366 73.9199 21.2366C80.3082 21.2366 85.5137 26.0929 85.5137 32.7939ZM80.4385 32.7939C80.4385 28.6357 77.4215 25.7907 73.9199 25.7907C70.4184 25.7907 67.4014 28.6357 67.4014 32.7939C67.4014 36.9103 70.4184 39.797 73.9199 39.797C77.4215 39.797 80.4385 36.9051 80.4385 32.7939Z" fill="#687D80"/>
<path d="M109.483 21.9348V42.6838C109.483 51.2189 104.449 54.7048 98.4989 54.7048C92.8974 54.7048 89.5261 50.9583 88.2546 47.8944L92.6733 46.0551C93.4601 47.9361 95.3881 50.1559 98.4936 50.1559C102.303 50.1559 104.663 47.8059 104.663 43.382V41.7198H104.486C103.35 43.1215 101.162 44.346 98.3999 44.346C92.6212 44.346 87.3271 39.3124 87.3271 32.8356C87.3271 26.3118 92.6212 21.2366 98.3999 21.2366C101.156 21.2366 103.345 22.4611 104.486 23.8211H104.663V21.94H109.483V21.9348ZM105.023 32.8356C105.023 28.766 102.308 25.7907 98.8532 25.7907C95.3516 25.7907 92.418 28.766 92.418 32.8356C92.418 36.8634 95.3516 39.797 98.8532 39.797C102.308 39.797 105.023 36.8634 105.023 32.8356Z" fill="#687D80"/>
<path d="M117.429 9.77325V43.6427H112.479V9.77325H117.429Z" fill="#687D80"/>
<path d="M136.719 36.5978L140.659 39.2239C139.387 41.105 136.323 44.346 131.029 44.346C124.464 44.346 119.561 39.2708 119.561 32.7887C119.561 25.9158 124.505 21.2314 130.461 21.2314C136.459 21.2314 139.392 26.0044 140.351 28.5837L140.877 29.8968L125.428 36.2955C126.611 38.6143 128.45 39.7971 131.029 39.7971C133.614 39.7971 135.406 38.5257 136.719 36.5978ZM124.594 32.4396L134.922 28.1512C134.354 26.7079 132.645 25.7022 130.633 25.7022C128.054 25.7022 124.464 27.9793 124.594 32.4396V32.4396Z" fill="#687D80"/>
<path d="M18.5769 29.7871V24.8839H35.1C35.2615 25.7384 35.3449 26.7493 35.3449 27.8435C35.3449 31.5223 34.3392 36.0712 31.0982 39.3123C27.9457 42.595 23.9178 44.3458 18.5821 44.3458C8.69223 44.3458 0.375977 36.2901 0.375977 26.4002C0.375977 16.5103 8.69223 8.45459 18.5821 8.45459C24.0533 8.45459 27.9509 10.6014 30.8793 13.3995L27.4194 16.8594C25.3195 14.8898 22.4745 13.3578 18.5769 13.3578C11.3549 13.3578 5.70651 19.1782 5.70651 26.4002C5.70651 33.6222 11.3549 39.4425 18.5769 39.4425C23.2613 39.4425 25.9292 37.5615 27.6383 35.8524C29.0243 34.4663 29.9362 32.4863 30.2957 29.7819L18.5769 29.7871V29.7871Z" fill="#687D80"/>
</g>
<defs>
<clipPath id="clip0_281_589">
<rect width="141.25" height="60" fill="white" transform="translate(0.205078 0.731323)"/>
</clipPath>
</defs>
</svg>
