<svg width="221" height="70" viewBox="0 0 221 70" fill="none" xmlns="http://www.w3.org/2000/svg">
<g clip-path="url(#clip0_281_622)">
<path d="M88.8188 37.3736L84.9962 27.3693C84.8403 26.9602 84.2441 26.9602 84.0878 27.3693L80.2659 37.3742C80.2388 37.4453 80.2298 37.5218 80.2397 37.597C80.2495 37.6722 80.278 37.744 80.3226 37.8063C80.3673 37.8685 80.4267 37.9194 80.496 37.9545C80.5652 37.9896 80.6422 38.0079 80.7203 38.0079H88.3644C88.4425 38.0078 88.5195 37.9895 88.5887 37.9543C88.658 37.9192 88.7174 37.8683 88.762 37.8061C88.8066 37.7438 88.8351 37.6719 88.8449 37.5967C88.8547 37.5214 88.8456 37.445 88.8185 37.3739L88.8188 37.3736ZM90.5846 42.9968H78.5005C78.4016 42.9968 78.3051 43.0262 78.224 43.081C78.1428 43.1358 78.0808 43.2135 78.0464 43.3034L75.6674 49.5283C75.633 49.6183 75.5711 49.696 75.4899 49.7508C75.4087 49.8056 75.3122 49.835 75.2134 49.835H69.9757C69.8966 49.835 69.8186 49.8161 69.7487 49.7801C69.6787 49.744 69.619 49.6919 69.5746 49.6282C69.5303 49.5645 69.5027 49.4912 69.4942 49.4148C69.4858 49.3384 69.4968 49.2611 69.5262 49.1897L81.5848 20.0242C81.6209 19.9371 81.683 19.8624 81.7632 19.8099C81.8434 19.7574 81.9379 19.7294 82.0346 19.7295H87.0498C87.2474 19.7295 87.4253 19.8461 87.4993 20.0242L99.5575 49.1894C99.5871 49.2608 99.5982 49.3382 99.5899 49.4147C99.5815 49.4912 99.5539 49.5646 99.5095 49.6283C99.4652 49.6921 99.4053 49.7443 99.3353 49.7804C99.2653 49.8165 99.1873 49.8353 99.108 49.8353H93.8714C93.7725 49.8353 93.6759 49.8058 93.5948 49.751C93.5136 49.6961 93.4517 49.6184 93.4173 49.5283L91.038 43.3034C91.0036 43.2135 90.9416 43.1358 90.8605 43.081C90.7793 43.0262 90.6828 42.9968 90.5839 42.9968H90.5846ZM102.011 29.9651H106.491C106.62 29.9651 106.743 30.0146 106.834 30.1028C106.925 30.191 106.976 30.3107 106.976 30.4354V49.3647C106.976 49.4894 106.925 49.609 106.834 49.6972C106.743 49.7854 106.62 49.835 106.491 49.835H102.011C101.883 49.835 101.76 49.7854 101.669 49.6972C101.578 49.609 101.527 49.4894 101.527 49.3647V30.4351C101.527 30.3103 101.578 30.1907 101.669 30.1025C101.76 30.0143 101.883 29.9648 102.011 29.9648V29.9651ZM123.313 34.5696C123.313 34.6944 123.262 34.814 123.171 34.9022C123.081 34.9904 122.957 35.0399 122.829 35.0399H122.693C120.478 35.0399 118.854 35.556 117.82 36.5882C116.786 37.6203 116.27 39.3266 116.27 41.7063V49.3647C116.27 49.4894 116.219 49.609 116.128 49.6972C116.037 49.7854 115.914 49.835 115.786 49.835H111.35C111.222 49.835 111.098 49.7854 111.008 49.6972C110.917 49.609 110.866 49.4894 110.866 49.3647V30.4351C110.866 30.3103 110.917 30.1907 111.008 30.1025C111.098 30.0143 111.222 29.9648 111.35 29.9648H115.741C115.87 29.9648 115.993 30.0143 116.084 30.1025C116.175 30.1907 116.226 30.3103 116.226 30.4351V34.1793H116.314C116.846 32.6311 117.688 31.4418 118.84 30.6097C119.991 29.7785 121.409 29.3625 123.092 29.3625H123.313V34.5693V34.5696ZM135.562 34.3947C135.434 34.3947 135.31 34.4442 135.22 34.5324C135.129 34.6206 135.078 34.7403 135.078 34.865V42.7385C135.078 43.5414 135.239 44.1149 135.565 44.4588C135.889 44.8028 136.451 44.9749 137.248 44.9749H137.694C137.822 44.9749 137.945 45.0244 138.036 45.1126C138.127 45.2008 138.178 45.3205 138.178 45.4452V49.4073C138.178 49.5321 138.127 49.6517 138.036 49.7399C137.945 49.8281 137.822 49.8776 137.694 49.8776H135.786C133.807 49.8776 132.287 49.3832 131.224 48.394C130.16 47.4048 129.629 45.9359 129.629 43.9857V34.865C129.629 34.7403 129.578 34.6206 129.487 34.5324C129.396 34.4442 129.273 34.3947 129.144 34.3947H126.348C126.219 34.3947 126.096 34.3451 126.005 34.2569C125.915 34.1687 125.864 34.0491 125.864 33.9244V30.4351C125.864 30.3103 125.915 30.1907 126.005 30.1025C126.096 30.0143 126.219 29.9648 126.348 29.9648H129.145C129.273 29.9648 129.396 29.9152 129.487 29.827C129.578 29.7388 129.629 29.6192 129.629 29.4945V22.4785C129.629 22.3538 129.68 22.2342 129.771 22.146C129.862 22.0578 129.985 22.0082 130.113 22.0082H134.593C134.721 22.0082 134.845 22.0578 134.936 22.146C135.026 22.2342 135.077 22.3538 135.077 22.4785V29.4945C135.077 29.6192 135.128 29.7388 135.219 29.827C135.31 29.9152 135.433 29.9648 135.562 29.9648H138.801C138.93 29.9648 139.053 30.0143 139.144 30.1025C139.234 30.1907 139.286 30.3103 139.286 30.4351V33.9247C139.286 34.0494 139.234 34.1691 139.144 34.2573C139.053 34.3455 138.93 34.395 138.801 34.395H135.562V34.3947ZM156.075 43.9427C157.094 42.9106 157.603 41.563 157.603 39.8997C157.603 38.2374 157.094 36.8892 156.075 35.857C155.056 34.8249 153.72 34.3088 152.066 34.3088C150.412 34.3088 149.076 34.8249 148.057 35.857C147.038 36.8892 146.529 38.2374 146.529 39.8997C146.529 41.563 147.038 42.9106 148.057 43.9427C149.076 44.9749 150.412 45.491 152.066 45.491C153.72 45.491 155.056 44.9749 156.075 43.9427ZM145.732 49.2327C144.225 48.4015 143.036 47.1897 142.166 45.5985C141.294 44.0073 140.859 42.1079 140.859 39.8997C140.859 37.6924 141.294 35.7924 142.166 34.2012C143.036 32.6101 144.225 31.3992 145.732 30.5671C147.238 29.7356 148.891 29.3198 150.693 29.3198C152.287 29.3198 153.653 29.6208 154.791 30.2228C155.927 30.8248 156.835 31.671 157.515 32.7606H157.603V30.4351C157.603 30.3103 157.654 30.1907 157.745 30.1025C157.836 30.0143 157.959 29.9648 158.088 29.9648H162.523C162.651 29.9648 162.775 30.0143 162.866 30.1025C162.956 30.1907 163.007 30.3103 163.007 30.4351V49.3644C163.007 49.4891 162.956 49.6087 162.866 49.6969C162.775 49.7851 162.651 49.8347 162.523 49.8347H158.088C157.959 49.8347 157.836 49.7851 157.745 49.6969C157.654 49.6087 157.603 49.4891 157.603 49.3644V47.0392H157.515C156.835 48.1294 155.927 48.9746 154.79 49.5766C153.653 50.1786 152.288 50.4796 150.693 50.4796C148.891 50.4796 147.238 50.0639 145.732 49.2327ZM181.454 43.9427C182.473 42.9106 182.982 41.563 182.982 39.8997C182.982 38.2374 182.473 36.8892 181.454 35.857C180.436 34.8249 179.099 34.3088 177.445 34.3088C175.791 34.3088 174.455 34.8249 173.436 35.857C172.418 36.8892 171.908 38.2374 171.908 39.8997C171.908 41.563 172.418 42.9106 173.436 43.9427C174.455 44.9749 175.791 45.491 177.445 45.491C179.099 45.491 180.436 44.9749 181.454 43.9427ZM174.721 49.5766C173.584 48.9746 172.676 48.1294 171.997 47.0392H171.908V49.3644C171.908 49.4891 171.857 49.6087 171.766 49.6969C171.675 49.7851 171.552 49.8347 171.424 49.8347H166.944C166.815 49.8347 166.692 49.7851 166.601 49.6969C166.511 49.6087 166.46 49.4891 166.46 49.3644V20.1988C166.46 20.0741 166.511 19.9545 166.601 19.8663C166.692 19.7781 166.815 19.7285 166.944 19.7285H171.424C171.552 19.7285 171.675 19.7781 171.766 19.8663C171.857 19.9545 171.908 20.0741 171.908 20.1988V32.7602H171.997C172.676 31.6707 173.584 30.8248 174.721 30.2228C175.858 29.6205 177.224 29.3195 178.819 29.3195C180.62 29.3195 182.274 29.7353 183.78 30.5668C185.286 31.3989 186.475 32.6097 187.346 34.2006C188.217 35.7927 188.653 37.6928 188.653 39.9C188.653 42.1083 188.217 44.0073 187.346 45.5988C186.475 47.19 185.286 48.4018 183.78 49.2327C182.274 50.0642 180.62 50.4802 178.819 50.4802C177.224 50.4802 175.858 50.1792 174.721 49.5769L174.721 49.5766ZM196.201 49.835H191.721C191.592 49.835 191.469 49.7854 191.378 49.6972C191.287 49.609 191.236 49.4894 191.236 49.3647V20.1998C191.236 20.075 191.287 19.9554 191.378 19.8672C191.469 19.779 191.592 19.7295 191.721 19.7295H196.201C196.329 19.7295 196.452 19.779 196.543 19.8672C196.634 19.9554 196.685 20.075 196.685 20.1998V49.3647C196.685 49.4894 196.634 49.609 196.543 49.6972C196.452 49.7854 196.329 49.835 196.201 49.835ZM206.768 34.5671C206.025 35.1296 205.523 35.9417 205.264 37.0039C205.192 37.2968 205.428 37.5777 205.738 37.5777H214.263C214.559 37.5777 214.791 37.3206 214.744 37.0372C214.573 36.0323 214.129 35.2312 213.412 34.6317C212.571 33.9294 211.47 33.5783 210.112 33.5783C208.753 33.5783 207.638 33.9078 206.768 34.5671ZM217.687 32.094C219.429 33.9438 220.3 36.5603 220.3 39.943V40.5048C220.3 40.6296 220.249 40.7492 220.158 40.8374C220.068 40.9256 219.944 40.9751 219.816 40.9751H205.573C205.502 40.9753 205.432 40.9905 205.368 41.0196C205.304 41.0487 205.247 41.0912 205.201 41.1439C205.155 41.1966 205.122 41.2584 205.104 41.3249C205.085 41.3913 205.082 41.461 205.094 41.5288C205.321 42.7855 205.894 43.7838 206.812 44.5234C207.86 45.3699 209.182 45.7923 210.776 45.7923C212.835 45.7923 214.741 45.0122 216.493 43.4517C216.707 43.2611 217.046 43.3016 217.212 43.5333L219.39 46.5683C219.459 46.6627 219.489 46.7781 219.475 46.8927C219.461 47.0073 219.405 47.113 219.316 47.1897C218.247 48.0982 217.059 48.8648 215.782 49.4694C214.364 50.1429 212.696 50.4802 210.776 50.4802C208.562 50.4802 206.627 50.0425 204.973 49.1684C203.319 48.2943 202.035 47.0615 201.12 45.4697C200.204 43.8785 199.746 42.0365 199.746 39.943C199.746 37.8505 200.189 36.0012 201.075 34.395C201.961 32.7897 203.201 31.5425 204.796 30.6533C206.391 29.7651 208.251 29.3201 210.378 29.3201C213.507 29.3201 215.944 30.2451 217.687 32.094ZM107.561 22.967C107.561 24.741 106.079 26.1792 104.252 26.1792C102.424 26.1792 100.943 24.741 100.943 22.9667C100.943 21.1924 102.425 19.7542 104.252 19.7542C106.079 19.7542 107.561 21.1924 107.561 22.9667" fill="#333333"/>
<path d="M26.2181 11.2467L4.91749 19.804C3.73298 20.28 3.74525 21.9138 4.93719 22.3725L26.3266 30.6078C28.2059 31.3314 30.2988 31.3314 32.1781 30.6078L53.5678 22.3722C54.7594 21.9138 54.7723 20.2803 53.5871 19.8043L32.2872 11.2464C30.344 10.4657 28.161 10.4657 26.2177 11.2464" fill="#FCB400"/>
<path d="M31.1501 35.1045V55.6776C31.1501 56.6559 32.1664 57.3262 33.1032 56.9656L56.9376 47.9835C57.2034 47.8812 57.4314 47.7037 57.5921 47.4741C57.7527 47.2444 57.8386 46.9732 57.8385 46.6955V26.1227C57.8385 25.1442 56.8223 24.4742 55.8855 24.8347L32.0511 33.8168C31.7854 33.9192 31.5574 34.0967 31.3967 34.3264C31.2361 34.556 31.1502 34.8272 31.1501 35.1048" fill="#18BFFF"/>
<path d="M25.5843 36.1658L18.5108 39.4817L17.7926 39.8188L2.8609 46.7651C1.91471 47.2085 0.706299 46.5388 0.706299 45.5179V26.2086C0.706299 25.8392 0.90135 25.5204 1.16292 25.2805C1.27023 25.1768 1.39198 25.0881 1.52461 25.0171C1.88112 24.8093 2.39006 24.7538 2.82279 24.92L25.4655 33.6306C26.6164 34.0739 26.7068 35.6397 25.5843 36.1661" fill="#F82B60"/>
<path d="M25.5845 36.1658L18.511 39.4817L1.16309 25.2802C1.27042 25.1766 1.39216 25.088 1.52477 25.0171C1.88129 24.8093 2.39023 24.7538 2.82296 24.92L25.4656 33.6306C26.6166 34.0739 26.707 35.6397 25.5845 36.1661" fill="black" fill-opacity="0.25"/>
<rect x="0.706299" y="0.731445" width="263.083" height="82" fill="black" style="mix-blend-mode:saturation"/>
</g>
<defs>
<clipPath id="clip0_281_622">
<rect width="219.891" height="68.5373" fill="white" transform="translate(0.706299 0.731445)"/>
</clipPath>
</defs>
</svg>
